# xmcd
#
# Track frame offsets: 
#        150
#        11660
#        24430
#        44391
#        57984
#        74131
#        94170
#        104728
#        117641
#        132244
#        147020
#        158929
#        174103
#
# Disc length: 2365 seconds
#
# Revision: 0
# Processed by: cddbd v1.5.2PL0 Copyright (c) Steve Scherf et al.
# Submitted via: ExactAudioCopyFreeDBPlugin 1.0
#
DISCID=ba093b0d
DTITLE=Kimberly Murray - A World Away
DYEAR=2014
DGENRE=Country
TTITLE0=Crazy Dreams
TTITLE1=A Second Time Around
TTITLE2=Hi-Lo Bar-N-Grill
TTITLE3=Keep Our Mind Outta This
TTITLE4=Feelin' Kind of Haggard
TTITLE5=Audrey
TTITLE6=Keepin' The Fires Burning (with Bob Manning)
TTITLE7=Lost On Broadway Blues
TTITLE8=Shade of Blues
TTITLE9=Someone To Finish What You Started
TTITLE10=On This Side Of The Bed
TTITLE11=South of Montgomery
TTITLE12=South of Montgomery (Reprise)
EXTD=
EXTT0=
EXTT1=
EXTT2=
EXTT3=
EXTT4=
EXTT5=
EXTT6=
EXTT7=
EXTT8=
EXTT9=
EXTT10=
EXTT11=
EXTT12=
PLAYORDER=
